<svg id="svg2" xmlns="http://www.w3.org/2000/svg" viewBox="0 0 511.95 512.01"><defs><style>.cls-1{fill:#e8000b;}.cls-2{fill:#fff;}</style></defs><path id="coin" class="cls-1" d="M504.29,317.93C470.1,455.07,331.19,538.54,194,504.34S-26.54,331.23,7.67,194.1,180.75-26.54,317.87,7.66,538.48,180.78,504.29,317.93Z" transform="translate(0 0)"/><path id="symbol" class="cls-2" d="M368.81,219.53c5.09-34.07-20.84-52.38-56.31-64.59L324,108.79l-28.09-7-11.2,44.93c-7.38-1.84-15-3.58-22.5-5.3L273.5,96.2l-28.08-7-11.51,46.13c-6.11-1.39-12.11-2.77-17.93-4.22l0-.14-38.74-9.67-7.47,30s20.84,4.77,20.4,5.07c11.38,2.84,13.43,10.37,13.09,16.33l-13.11,52.57a22.74,22.74,0,0,1,2.92.94l-3-.74-18.37,73.64c-1.39,3.46-4.92,8.64-12.87,6.67.28.41-20.42-5.09-20.42-5.09l-13.94,32.15L161.09,342c6.8,1.71,13.46,3.49,20,5.17l-11.62,46.67,28,7,11.52-46.17c7.66,2.08,15.1,4,22.38,5.8l-11.47,46,28.09,7,11.62-46.58c47.9,9.06,83.91,5.41,99.07-37.91,12.22-34.88-.61-55-25.81-68.12,18.36-4.23,32.18-16.31,35.87-41.24Zm-64.18,90c-8.68,34.88-67.41,16-86.45,11.3L233.61,259C252.65,263.74,313.7,273.14,304.63,309.52Zm8.69-90.5c-7.92,31.73-56.8,15.61-72.66,11.66l14-56.08C270.5,178.55,321.57,185.93,313.32,219Z" transform="translate(0 0)"/></svg>