<?xml version="1.0" encoding="utf-8"?>
<!-- Generator: Adobe Illustrator 26.0.1, SVG Export Plug-In . SVG Version: 6.00 Build 0)  -->
<svg version="1.1" id="Layer_1" xmlns="http://www.w3.org/2000/svg" xmlns:xlink="http://www.w3.org/1999/xlink" x="0px" y="0px"
	 viewBox="0 0 100 100" style="enable-background:new 0 0 100 100;" xml:space="preserve">
<style type="text/css">
	.st0{fill:#010101;}
</style>
<g>
	<path class="st0" d="M23.7,13.8c-0.7,0-1.3,0.6-1.3,1.3c0,0,0,0,0,0l0,0v6.7c0,0.7,0.6,1.3,1.3,1.3c0,0,0,0,0,0h52.6
		c0.7,0,1.3-0.6,1.3-1.3c0,0,0,0,0,0v-6.7c0-0.7-0.6-1.3-1.3-1.3l0,0H23.7z M25.7,25.7v57.9H15.1c0,0-0.1,0-0.1,0
		c-0.7,0-1.3,0.6-1.2,1.4c0,0.7,0.6,1.3,1.4,1.2h69.8c0.7,0,1.3-0.6,1.3-1.3s-0.6-1.3-1.3-1.3H74.3V25.7L25.7,25.7z M32.6,26.9h8
		c0.7,0,1.3,0.6,1.3,1.3c0,0,0,0,0,0l0,0v8.4c0,0.7-0.6,1.3-1.3,1.3h-8c-0.7,0-1.3-0.6-1.3-1.3v-8.4C31.3,27.4,31.9,26.9,32.6,26.9
		L32.6,26.9z M46,26.9h8c0.7,0,1.3,0.6,1.3,1.3v0l0,0v8.4c0,0.7-0.6,1.3-1.3,1.3h-8c-0.7,0-1.3-0.6-1.3-1.3v-8.4
		C44.7,27.4,45.3,26.9,46,26.9L46,26.9z M59.4,26.9h8c0.7,0,1.3,0.6,1.3,1.3v0v8.4c0,0.7-0.6,1.3-1.3,1.3h-8c-0.7,0-1.3-0.6-1.3-1.3
		c0,0,0,0,0,0v-8.4C58.2,27.4,58.7,26.9,59.4,26.9L59.4,26.9z M33.8,29.4v5.8h5.4v-5.8L33.8,29.4z M47.3,29.4v5.8h5.4v-5.8
		L47.3,29.4z M60.7,29.4v5.8h5.4v-5.8L60.7,29.4z M32.6,41.1h8c0.7,0,1.3,0.6,1.3,1.3v8.4c0,0.7-0.6,1.3-1.3,1.3l0,0h-8
		c-0.7,0-1.3-0.6-1.3-1.3c0,0,0,0,0,0l0,0v-8.4C31.3,41.7,31.9,41.1,32.6,41.1z M46,41.1h8c0.7,0,1.3,0.6,1.3,1.3v8.4
		c0,0.7-0.6,1.3-1.3,1.3l0,0h-8c-0.7,0-1.3-0.6-1.3-1.3c0,0,0,0,0,0l0,0v-8.4C44.7,41.7,45.3,41.1,46,41.1z M59.4,41.1h8
		c0.7,0,1.3,0.6,1.3,1.3v8.4c0,0.7-0.6,1.3-1.3,1.3l0,0h-8c-0.7,0-1.3-0.6-1.3-1.3l0,0v-8.4C58.1,41.7,58.7,41.1,59.4,41.1z
		 M33.8,43.7v5.8h5.4v-5.8H33.8z M47.3,43.7v5.8h5.4v-5.8H47.3z M60.7,43.7v5.8h5.4v-5.8H60.7z M32.4,55.4h8.1
		c0.7,0,1.3,0.6,1.3,1.3c0,0,0,0,0,0V65c0,0.7-0.6,1.3-1.3,1.3c0,0,0,0,0,0h-8c-0.7,0-1.3-0.6-1.3-1.3v-8.4
		C31.2,56,31.8,55.4,32.4,55.4z M45.9,55.4H54c0.7,0,1.3,0.6,1.3,1.3l0,0V65c0,0.7-0.6,1.3-1.3,1.3l0,0h-8c-0.7,0-1.3-0.6-1.3-1.3
		c0,0,0,0,0,0v-8.4C44.7,56,45.2,55.4,45.9,55.4z M59.3,55.4h8.1c0.7,0,1.3,0.6,1.3,1.3V65c0,0.7-0.6,1.3-1.3,1.3h-8
		c-0.7,0-1.3-0.6-1.3-1.3v-8.4C58.1,56,58.6,55.4,59.3,55.4z M33.8,57.9v5.8h5.4v-5.8H33.8z M47.3,57.9v5.8h5.4v-5.8H47.3z
		 M60.7,57.9v5.8h5.4v-5.8H60.7z M32.6,69.6h8c0.7,0,1.3,0.6,1.3,1.3c0,0,0,0,0,0l0,0v8.4c0,0.7-0.6,1.3-1.3,1.3c0,0,0,0,0,0h-8
		c-0.7,0-1.3-0.6-1.3-1.3l0,0v-8.4C31.3,70.2,31.8,69.6,32.6,69.6L32.6,69.6L32.6,69.6z M46,69.6h8c0.7,0,1.3,0.6,1.3,1.3l0,0v8.4
		c0,0.7-0.6,1.3-1.3,1.3c0,0,0,0,0,0h-8c-0.7,0-1.3-0.6-1.3-1.3c0,0,0,0,0,0l0,0v-8.4C44.7,70.2,45.3,69.6,46,69.6L46,69.6L46,69.6z
		 M59.4,69.6h8c0.7,0,1.3,0.6,1.3,1.3v8.4c0,0.7-0.6,1.3-1.3,1.3h-8c-0.7,0-1.3-0.6-1.3-1.3l0,0v-8.4C58.1,70.2,58.7,69.6,59.4,69.6
		C59.4,69.6,59.4,69.6,59.4,69.6z M33.8,72.2V78h5.4v-5.8H33.8z M47.3,72.2V78h5.4v-5.8H47.3z M60.7,72.2V78h5.4v-5.8H60.7z"/>
</g>
</svg>
